<svg width="139" height="55" viewBox="0 0 139 55" fill="none" xmlns="http://www.w3.org/2000/svg">
<path d="M28.3535 43.3516C25.7754 43.3516 23.6777 42.5078 22.0605 40.8203C20.4434 39.1211 19.6348 36.8535 19.6348 34.0176V33.4199C19.6348 31.5332 19.9922 29.8516 20.707 28.375C21.4336 26.8867 22.4414 25.7266 23.7305 24.8945C25.0312 24.0508 26.4375 23.6289 27.9492 23.6289C30.4219 23.6289 32.3438 24.4434 33.7148 26.0723C35.0859 27.7012 35.7715 30.0332 35.7715 33.0684V34.4219H22.8867C22.9336 36.2969 23.4785 37.8145 24.5215 38.9746C25.5762 40.123 26.9121 40.6973 28.5293 40.6973C29.6777 40.6973 30.6504 40.4629 31.4473 39.9941C32.2441 39.5254 32.9414 38.9043 33.5391 38.1309L35.5254 39.6777C33.9316 42.127 31.541 43.3516 28.3535 43.3516ZM27.9492 26.3008C26.6367 26.3008 25.5352 26.7812 24.6445 27.7422C23.7539 28.6914 23.2031 30.0273 22.9922 31.75H32.5195V31.5039C32.4258 29.8516 31.9805 28.5742 31.1836 27.6719C30.3867 26.7578 29.3086 26.3008 27.9492 26.3008ZM45.9316 30.9238L50.1504 23.9805H53.9473L47.7246 33.3848L54.1406 43H50.3789L45.9844 35.8809L41.5898 43H37.8105L44.2266 33.3848L38.0039 23.9805H41.7656L45.9316 30.9238ZM69.1523 43C68.9648 42.625 68.8125 41.957 68.6953 40.9961C67.1836 42.5664 65.3789 43.3516 63.2812 43.3516C61.4062 43.3516 59.8652 42.8242 58.6582 41.7695C57.4629 40.7031 56.8652 39.3555 56.8652 37.7266C56.8652 35.7461 57.6152 34.2109 59.1152 33.1211C60.627 32.0195 62.748 31.4688 65.4785 31.4688H68.6426V29.9746C68.6426 28.8379 68.3027 27.9355 67.623 27.2676C66.9434 26.5879 65.9414 26.248 64.6172 26.248C63.457 26.248 62.4844 26.541 61.6992 27.127C60.9141 27.7129 60.5215 28.4219 60.5215 29.2539H57.252C57.252 28.3047 57.5859 27.3906 58.2539 26.5117C58.9336 25.6211 59.8477 24.918 60.9961 24.4023C62.1562 23.8867 63.4277 23.6289 64.8105 23.6289C67.002 23.6289 68.7188 24.1797 69.9609 25.2812C71.2031 26.3711 71.8477 27.877 71.8945 29.7988V38.5527C71.8945 40.2988 72.1172 41.6875 72.5625 42.7188V43H69.1523ZM63.7559 40.5215C64.7754 40.5215 65.7422 40.2578 66.6562 39.7305C67.5703 39.2031 68.2324 38.5176 68.6426 37.6738V33.7715H66.0938C62.1094 33.7715 60.1172 34.9375 60.1172 37.2695C60.1172 38.2891 60.457 39.0859 61.1367 39.6602C61.8164 40.2344 62.6895 40.5215 63.7559 40.5215ZM80.0508 23.9805L80.1387 26.0898C81.5332 24.4492 83.4141 23.6289 85.7812 23.6289C88.4414 23.6289 90.252 24.6484 91.2129 26.6875C91.8457 25.7734 92.666 25.0352 93.6738 24.4727C94.6934 23.9102 95.8945 23.6289 97.2773 23.6289C101.449 23.6289 103.57 25.8379 103.641 30.2559V43H100.389V30.4492C100.389 29.0898 100.078 28.0762 99.457 27.4082C98.8359 26.7285 97.793 26.3887 96.3281 26.3887C95.1211 26.3887 94.1191 26.752 93.3223 27.4785C92.5254 28.1934 92.0625 29.1602 91.9336 30.3789V43H88.6641V30.5371C88.6641 27.7715 87.3105 26.3887 84.6035 26.3887C82.4707 26.3887 81.0117 27.2969 80.2266 29.1133V43H76.9746V23.9805H80.0508ZM112.096 43H108.844V23.9805H112.096V43ZM108.58 18.9355C108.58 18.4082 108.738 17.9629 109.055 17.5996C109.383 17.2363 109.863 17.0547 110.496 17.0547C111.129 17.0547 111.609 17.2363 111.938 17.5996C112.266 17.9629 112.43 18.4082 112.43 18.9355C112.43 19.4629 112.266 19.9023 111.938 20.2539C111.609 20.6055 111.129 20.7812 110.496 20.7812C109.863 20.7812 109.383 20.6055 109.055 20.2539C108.738 19.9023 108.58 19.4629 108.58 18.9355ZM120.393 23.9805L120.498 26.3711C121.951 24.543 123.85 23.6289 126.193 23.6289C130.213 23.6289 132.24 25.8965 132.275 30.4316V43H129.023V30.4141C129.012 29.043 128.695 28.0293 128.074 27.373C127.465 26.7168 126.51 26.3887 125.209 26.3887C124.154 26.3887 123.229 26.6699 122.432 27.2324C121.635 27.7949 121.014 28.5332 120.568 29.4473V43H117.316V23.9805H120.393Z" fill="#EFEFEF"/>
<path d="M34.7436 51L29 42.1111L31.4615 41L37 49.6667L34.7436 51Z" fill="#EFEFEF" stroke="#EFEFEF"/>
<mask id="mask0" mask-type="alpha" maskUnits="userSpaceOnUse" x="0" y="0" width="42" height="53">
<path d="M25 51H1.74846e-07M2 0L2 52M0 2L40 2M40 0V19" stroke="white" stroke-width="4"/>
</mask>
<g mask="url(#mask0)">
<rect width="42" height="53" rx="4" fill="#EFEFEF"/>
</g>
</svg>
